# ProBuilder 4.0.5
# https://unity3d.com/unity/features/worldbuilding/probuilder
# 12/31/2019 12:46:33 AM

mtllib ./sphere.mtl
o sphere

g Icosphere
v 0 0.8506508 0
v 0.1624599 0.4253254 0.2628655
v -0.2628655 0.6881909 0.4253254
v -0.5257311 0.8506508 0
v -0.2628655 0.6881909 -0.4253254
v 0.1624599 0.4253254 -0.2628655
v -0.6881909 0.4253254 0.2628655
v -0.2628655 0.1624599 0.4253254
v 0 0 0
v -0.2628655 0.1624599 -0.4253254
v -0.6881909 0.4253254 -0.2628655
v -0.5257311 0 0

vt 0 0.8506508
vt 0.1624599 0.4253254
vt -0.2628655 0.6881909
vt 0 0
vt 0.2628655 0.4253254
vt 0.5257311 0
vt 0.2628655 -0.4253254
vt 0.2628655 0.6881909
vt -0.1624599 0.4253254
vt -0.2628655 0.4253254
vt -0.5257311 0.8506508
vt -0.6881909 0.4253254
vt -0.2628655 0.1624599
vt 0.2628655 0.1624599
vt 0.5257311 0.8506508
vt 0.6881909 0.4253254
vt -0.5257311 0
vt -0.2628655 -0.4253254

vn 0.5773503 0.5773503 0.5773503
vn 0 0.9341723 0.3568221
vn 0 0.9341723 -0.3568221
vn 0.5773503 0.5773503 -0.5773503
vn 0.9341723 0.3568221 0
vn -0.5773503 0.5773503 0.5773503
vn 0.3568221 0 0.9341723
vn 0.9341723 -0.3568221 0
vn 0.3568221 0 -0.9341723
vn -0.5773503 0.5773503 -0.5773503
vn -0.5773503 -0.5773503 0.5773503
vn 0 -0.9341723 0.3568221
vn 0 -0.9341723 -0.3568221
vn -0.5773503 -0.5773503 -0.5773503
vn -0.9341723 -0.3568221 0
vn -0.3568221 0 0.9341723
vn 0.5773503 -0.5773503 0.5773503
vn 0.5773503 -0.5773503 -0.5773503
vn -0.3568221 0 -0.9341723
vn -0.9341723 0.3568221 0

g Icosphere
usemtl ProBuilderDefault
f 3/3/1 2/2/1 1/1/1
f 4/6/2 3/5/2 1/4/2
f 5/7/3 4/6/3 1/4/3
f 6/9/4 5/8/4 1/1/4
f 2/10/5 6/5/5 1/1/5
f 7/12/6 3/3/6 4/11/6
f 8/13/7 2/2/7 3/3/7
f 9/4/8 6/5/8 2/10/8
f 10/14/9 5/8/9 6/9/9
f 11/16/10 4/15/10 5/8/10
f 8/13/11 7/12/11 12/17/11
f 9/4/12 8/10/12 12/17/12
f 10/18/13 9/4/13 12/17/13
f 11/16/14 10/14/14 12/6/14
f 7/5/15 11/10/15 12/4/15
f 3/3/16 7/12/16 8/13/16
f 2/2/17 8/13/17 9/4/17
f 6/9/18 9/4/18 10/14/18
f 5/8/19 10/14/19 11/16/19
f 4/1/20 11/10/20 7/5/20

